<?xml version="1.0" encoding="utf-8"?>
<!-- Generator: Adobe Illustrator 21.0.2, SVG Export Plug-In . SVG Version: 6.00 Build 0)  -->
<svg version="1.1" id="Layer_1" xmlns="http://www.w3.org/2000/svg" xmlns:xlink="http://www.w3.org/1999/xlink" x="0px" y="0px"
	 viewBox="0 0 1430.5 618.1" style="enable-background:new 0 0 1430.5 618.1;" xml:space="preserve">
<style type="text/css">
	.st0{opacity:0.5;fill:#9BD0F0;enable-background:new    ;}
	.st1{opacity:0.5;fill:#9BCEEE;enable-background:new    ;}
	.st2{opacity:0.5;}
	.st3{fill:none;}
	.st4{fill:#9BCFEF;}
	.st5{fill:#9BD0F0;}
	.st6{opacity:0.5;fill:#ECF6FB;}
</style>
<path class="st0" d="M85.6,443h4.5v17.2h-4.5V443z M127.1,444.2h4.5v17h-4.5V444.2z M3.9,616.8H0l16-98.9c2.1-16.2,12.9-30,28-35.9
	l28.6-10.8l1.6,4.2l-28.6,10.8c-13.6,5.3-23.2,17.7-25.2,32.4L3.9,616.8z M111.7,541.8h-7.4l-30.4-43.7h-1.1l-8,8.1h-7.5L71.6,472
	l18.5-18.7v21.3L111.7,541.8z M70.9,493.7h5.3l28.4,40.8l-19-59.3v-11.1l-10.2,10.4l-10.5,25.3L70.9,493.7L70.9,493.7z"/>
<path class="st1" d="M59.2,583.8h-0.5v-4.5h0.5c5.6,0,10.2-4.6,10.2-10.2v-32.9c0-11.6-9.4-21-21-21c-11.6,0-21,9.4-21,21v32.9
	c0,5.6,4.6,10.2,10.2,10.2h0.2v4.5h-0.2c-8.1,0-14.6-6.6-14.6-14.6v-32.9c0-14.1,11.4-25.5,25.5-25.5c14,0,25.5,11.4,25.5,25.5v32.9
	C73.8,577.2,67.2,583.8,59.2,583.8"/>
<path class="st1" d="M46.4,513l0-37.4c0-3.4,1.3-6.7,3.6-9.1c2.4-2.5,5.5-3.8,8.8-3.8l22,0l-2.5,3.5l-19.5,1c-2.1,0-4.1,0.9-5.6,2.4
	c-1.5,1.6-2.4,3.7-2.4,6l0,37.4L46.4,513L46.4,513z"/>
<path class="st0" d="M108.6,582.3h4.5v35.1h-4.5V582.3z"/>
<g class="st2">
	<path class="st3" d="M465.1,411.2c8.2,13.2,20.3,23.6,24.3,27c2.8,2.4,6.6,3.7,11.3,3.7h13.1c4.1,0,7.7-1.3,10.6-3.9
		c6.6-5.7,16-15,23.1-26.6c12.6-20.5,15.2-46,15.2-63.8v-1.8H515l0.5-24c-16.3,15.4-37.7,24-60,24h-6.8v1.8
		C448.8,371.6,454.6,394.2,465.1,411.2L465.1,411.2z M553.2,475.9l-1.5-3.5l-15.1-15.3v16.5l-26.6,83h0.2l40.1-57.7h6.2l10.5,10.7
		h0.2l-13.4-32.3l-1-0.4L553.2,475.9z M477.5,457.1l-15.1,15.3L447,509.6h0.2l10.5-10.7h6.2l40.1,57.7h0.2l-26.5-82.7L477.5,457.1z
		 M366,548.4c-2.2-1.2-4.1-3-5.5-5.1c-0.3-0.4-0.7-0.7-1.1-0.7c-0.5-0.1-1,0-1.3,0.3c-1.9,1.3-4,2.4-6.2,3.1v-2
		c1.7-0.7,2.5-2.7,1.8-4.4c-0.8-1.7-2.8-2.5-4.5-1.8c-1.7,0.7-2.5,2.7-1.8,4.4c0.3,0.8,1,1.4,1.8,1.8v2c-2.2-0.7-4.3-1.8-6.2-3.1
		c-0.4-0.3-0.9-0.4-1.3-0.3c-0.5,0.1-0.9,0.3-1.1,0.7c-1.4,2.1-3.4,3.8-5.6,5.1c-0.5,0.3-0.7,0.8-0.6,1.3c0.1,0.5,0.5,0.9,1,1
		c1.6,0.3,3.3,0.5,5,0.5c3,0,6.1-0.6,8.9-1.7v5.6l2,0.9l0.7,0.3v-6.9c2.8,1.1,5.9,1.7,8.9,1.7c1.7,0,3.4-0.2,5-0.5
		c0.5-0.1,0.9-0.5,1-1C366.7,549.1,366.4,548.6,366,548.4z M668.5,505.9c0.5,2,1.4,9.9,2.6,21.3l17.5-37.9l-0.3-0.9l0.9-0.3l1.4-3
		l7.3-12.1l-5.2-9.4h-4.3v2.3c0.3,0.2,0.6,0.4,0.8,0.8c0.6,1,0.2,2.3-0.8,2.9l-23.5,13.2l12.6,15.4c0.7,0.9,0.6,2.2-0.3,3
		c-0.4,0.3-0.9,0.5-1.3,0.5c-0.6,0-1.2-0.3-1.6-0.8l-2.1-2.5v4.2C672.1,504.3,670.5,505.9,668.5,505.9L668.5,505.9z M355.6,560.4
		l-5.4-2.5l-3.9-1.8c-0.3-0.2-0.5-0.6-0.3-0.9c0.1-0.2,0.2-0.3,0.3-0.4c0.7-0.2,1.1-1,0.9-1.7c-0.2-0.7-1-1.1-1.7-0.9
		c-0.1,0-0.2,0.1-0.3,0.2c-1.7,0.8-2.4,2.8-1.6,4.5c0.3,0.7,0.9,1.3,1.6,1.6l3.9,1.8l5.4,2.6c0.3,0.2,0.5,0.6,0.3,0.9
		c-0.1,0.1-0.2,0.3-0.3,0.3c-0.7,0.2-1.1,1-0.9,1.7c0.2,0.7,1,1.1,1.7,0.9c0.1,0,0.2-0.1,0.3-0.2c1.7-0.8,2.4-2.8,1.6-4.5
		C356.8,561.3,356.3,560.7,355.6,560.4z M642.1,444.1v22.5l21.4,12l20.8-11.7v-15.1l-0.8,0.6c-1,0.9-2,1.7-2.9,2.4
		c-3.3,2.8-7.1,4.3-10.9,4.3H659c-1.2,0-2.1-0.9-2.1-2.1c0-1.2,0.9-2.1,2.1-2.1h10.7c2.7,0,5.6-1.2,8.2-3.3c0.9-0.8,1.9-1.6,3-2.5
		c4.2-3.4,9.9-8.1,11.1-11.5l9.3-19.8l9.3-5.4l3.4-11.7c-0.1-1.6-1.4-2.7-3.1-2.7h-4.4l0.4-2.5c0.6-3.6,0.6-8.2,0.6-11.9v-2.2l0-0.3
		h-86.8v1.1c0,3.1,0.1,8.8,1,13.3l0.5,2.5h-4.7c-0.9,0-1.6,0.3-2.2,0.9c-0.3,0.3-0.7,0.9-0.8,1.8l2.4,11.8l10.7,5.3l9.5,19.9
		c0.6,1.6,2.5,3.7,4.4,5.8L642.1,444.1L642.1,444.1z M665.3,370.6c11.6,0,21.1-9.5,21.1-21.1c0-11.6-9.5-21.1-21.1-21.1
		c-11.6,0-21.1,9.5-21.1,21.1C644.2,361.2,653.7,370.6,665.3,370.6z M665.4,345.4c2.6,0,4.7,2.1,4.7,4.7c0,2.6-2.1,4.7-4.7,4.7
		c-2.6,0-4.7-2.1-4.7-4.7C660.7,347.6,662.8,345.4,665.4,345.4z M711.7,368.5h-29.5l-0.1,0c-4.5,3.9-10.3,6.3-16.7,6.3
		c-6.4,0-12.2-2.4-16.7-6.3h-31.8v8.4h94.9L711.7,368.5L711.7,368.5z M762.1,474.5l18.5,57.7l18.5-57.7v-13.4h0v-9.6l-1.7-1.2
		l-0.9,0.8c-2.9,2.5-6.6,3.7-11,3.7h-9.9c-4,0-7.6-1.3-10.6-3.9c-0.9-0.8-1.9-1.7-3-2.7v4.9l0,0L762.1,474.5L762.1,474.5z
		 M349,569.1c0,0.7,0.6,1.3,1.3,1.3s1.3-0.6,1.3-1.3v-5.4l-2.7-1.2L349,569.1L349,569.1z M739,496.8l0.6,0.2l3.3-3.3h5.3l28.4,40.8
		l-19-59.3v-11.1l-10.2,10.4l-9,21.7L739,496.8L739,496.8z M720.3,483.9l14.2,9.8l7-16.8l-17.5,5.7l0,0.1L720.3,483.9z M355.6,552.3
		c-0.6-0.4-1.4-0.2-1.9,0.4c-0.4,0.6-0.2,1.4,0.4,1.8c0.1,0.1,0.2,0.1,0.3,0.2c0.3,0.2,0.5,0.6,0.3,0.9c-0.1,0.1-0.2,0.3-0.3,0.3
		l-1.7,0.8l3.1,1.4c1.6-0.9,2.2-3,1.2-4.6C356.7,553.1,356.2,552.6,355.6,552.3L355.6,552.3z M112.3,312.5h-5.8v7.7h-7.7v5.8h7.7
		v7.7h5.8V326h7.7v-5.8h-7.7V312.5z M346.3,562.8l1.7-0.8l-3.1-1.4c-1.6,0.9-2.2,3-1.2,4.6c0.3,0.6,0.8,1,1.4,1.3
		c0.7,0.2,1.5-0.1,1.7-0.8c0.2-0.6,0-1.2-0.6-1.6c-0.3-0.2-0.5-0.6-0.3-0.9C346,563,346.2,562.8,346.3,562.8z M973.5,434.8
		c-9.5,3.3-19,2.4-28-1.2c-0.3-0.1-0.7-0.3-1-0.4c-4.8-2-9.5-4.9-13.9-8.2v23.2l-12.9,5.2c6.7,18.6,24.3,31,44.3,31
		c20,0,37.7-12.5,44.4-31.3l-13-5.3l0-29C985.8,426.8,977.7,433.3,973.5,434.8L973.5,434.8z M911.3,380.8c9.9-6.4,21-12.2,31.8-17.1
		c21.7-9.9,44.6,1.4,63.3,17.9c1.5,1.4,2.5,3,3,4.8l4.7-9.8l15.5-7.9l3.5-17.8c0-1.5-0.6-3-1.7-4c-1-1-2.1-1.5-3.4-1.5h-5.8l0.6-3.3
		c1.1-6.5,2-11.6,2-17.1l-0.1-3c0.1-8.6-1.9-17.4-5.7-25.5c-0.3-0.8-0.7-1.5-1.1-2.2c-4.2-8.4-10.3-16-17.7-21.8
		c-11.2-8.8-24.7-13.6-39-13.7c-16.6-0.1-32.5,6.5-44.6,18.5c-12.4,12.4-19.6,29.4-19.6,46.7v1.1c0,5.3,0.5,10.4,1.6,17.8l0.4,2.6
		h-5.3c-2.7,0-5.2,2.6-5.3,5.6l5,18.1l13.5,7.8l2.9,6.2C910,382.1,910.5,381.3,911.3,380.8L911.3,380.8z M784.3,312.5h-5.8v7.7h-7.7
		v5.8h7.7v7.7h5.8V326h7.7v-5.8h-7.7V312.5z M78.6,427.6c5.3,8.7,12.4,15.7,17.4,20c2.1,1.8,4.7,2.8,7.6,2.8h9.9
		c3.4,0,6.1-0.9,8.1-2.6c3-2.6,12.1-10.4,18.2-20.3c7.9-12.8,12.3-29.8,12.3-47.9v-1.4h-4.5c-16.9,0-33.1-6.5-45.4-18.2l0.4,18.2
		H67.2v1.4C67.2,393,69.1,412.2,78.6,427.6z M148.6,489.1l-6.7-14.6l-10.2-10.4l-0.1,11.4l-18.9,58.9l28.4-40.8h3.6
		C145.6,491.9,147,490.4,148.6,489.1L148.6,489.1z M774.2,360.1l0.4,18.2h-35.5v1.4c0,13.4,2,32.6,11.4,48
		c5.3,8.7,12.4,15.7,17.4,20c2.1,1.8,4.7,2.8,7.6,2.8h9.9c3.4,0,6.1-0.9,8.1-2.6c3-2.6,12.1-10.4,18.2-20.3
		c7.9-12.8,12.3-29.8,12.3-47.9v-1.4h-4.5C802.8,378.3,786.5,371.8,774.2,360.1z M148,477.1l4.3,9.4c2.9-1.6,6.2-3,9.9-4.4
		L148,477.1z M301.5,434.8c-9.5,3.3-19,2.4-28-1.2c-0.4-0.1-0.7-0.3-1-0.4c-4.8-2-9.5-4.9-13.9-8.2v23.2l-12.9,5.2
		c6.7,18.6,24.3,31,44.3,31c20,0,37.7-12.5,44.4-31.3l-13-5.3l0-29C313.8,426.8,305.7,433.3,301.5,434.8L301.5,434.8z M239.3,380.8
		c9.9-6.4,21-12.2,31.8-17.1c21.7-9.9,44.6,1.4,63.3,17.9c1.5,1.4,2.5,3,3,4.8l4.7-9.8l15.5-7.9l3.5-17.8c0-1.5-0.6-3-1.7-4
		c-1-1-2.1-1.5-3.4-1.5h-5.8l0.6-3.3c1.1-6.5,2-11.6,2-17.1l-0.1-3c0.1-8.6-1.9-17.4-5.7-25.5c-0.3-0.8-0.7-1.5-1.1-2.2
		c-4.2-8.4-10.3-16-17.7-21.8c-11.2-8.8-24.7-13.6-39-13.7c-16.6-0.1-32.5,6.5-44.6,18.5c-12.4,12.4-19.6,29.4-19.6,46.7v1.1
		c0,5.3,0.5,10.4,1.6,17.8l0.4,2.6h-5.3c-2.7,0-5.2,2.6-5.3,5.6l5,18.1l13.5,7.8l2.9,6.2C238,382.1,238.5,381.3,239.3,380.8
		L239.3,380.8z M532.4,446.8L532.4,446.8l0-10.5c-1.9,1.8-3.7,3.4-5.3,4.8c-3.8,3.3-8.3,4.9-13.4,4.9h-13.1c-5.7,0-10.4-1.6-14-4.7
		l-1-0.9l-3.8,2.6v12h0V473l25.3,78.9l25.3-78.9L532.4,446.8L532.4,446.8z M1161.4,438.1c2.8,2.4,6.6,3.7,11.3,3.7h13.1
		c4.1,0,7.7-1.3,10.6-3.9c6.6-5.7,16-15,23.1-26.6c12.6-20.5,15.2-46,15.2-63.8v-1.8H1187l0.5-24c-16.3,15.4-37.7,24-60,24h-6.8v1.8
		c0,24.1,5.8,46.7,16.3,63.7C1145.3,424.4,1157.4,434.7,1161.4,438.1L1161.4,438.1z M1149.5,457.1l-15.1,15.3l-15.5,37.3h0.2
		l10.5-10.7h6.2l40.1,57.7h0.2l-26.5-82.7L1149.5,457.1z M1204.4,446.8L1204.4,446.8l0-10.5c-1.9,1.8-3.7,3.4-5.3,4.8
		c-3.8,3.3-8.3,4.9-13.4,4.9h-13.1c-5.7,0-10.4-1.6-14-4.7l-1-0.9l-3.8,2.6v12h0V473l25.3,78.9l25.3-78.9L1204.4,446.8L1204.4,446.8
		z M1027.6,552.3c-0.6-0.4-1.4-0.2-1.8,0.4c-0.4,0.6-0.2,1.4,0.4,1.8c0.1,0.1,0.2,0.1,0.3,0.2c0.3,0.2,0.5,0.6,0.3,0.9
		c-0.1,0.1-0.2,0.3-0.3,0.3l-1.7,0.8l3.1,1.4c1.6-0.9,2.2-3,1.2-4.6C1028.7,553.1,1028.2,552.6,1027.6,552.3L1027.6,552.3z
		 M1027.6,560.4l-5.4-2.5l-3.9-1.8c-0.3-0.2-0.5-0.6-0.3-0.9c0.1-0.2,0.2-0.3,0.3-0.4c0.7-0.2,1.1-1,0.9-1.7c-0.2-0.7-1-1.1-1.7-0.9
		c-0.1,0-0.2,0.1-0.3,0.2c-1.7,0.8-2.4,2.8-1.6,4.5c0.3,0.7,0.9,1.3,1.6,1.6l3.9,1.8l5.4,2.6c0.3,0.2,0.5,0.6,0.3,0.9
		c-0.1,0.1-0.2,0.3-0.3,0.3c-0.7,0.2-1.1,1-0.9,1.7c0.2,0.7,1,1.1,1.7,0.9c0.1,0,0.2-0.1,0.3-0.2c1.7-0.8,2.4-2.8,1.6-4.5
		C1028.8,561.3,1028.3,560.7,1027.6,560.4L1027.6,560.4z M1038,548.4c-2.2-1.2-4.1-3-5.5-5.1c-0.3-0.4-0.7-0.7-1.1-0.7
		c-0.5-0.1-1,0-1.3,0.3c-1.9,1.3-4,2.4-6.2,3.1v-2c1.7-0.7,2.5-2.7,1.8-4.4c-0.8-1.7-2.8-2.5-4.5-1.8c-1.7,0.7-2.5,2.7-1.8,4.4
		c0.3,0.8,1,1.4,1.8,1.8v2c-2.2-0.7-4.3-1.8-6.2-3.1c-0.4-0.3-0.9-0.4-1.3-0.3c-0.5,0.1-0.9,0.3-1.1,0.7c-1.4,2.1-3.4,3.8-5.6,5.1
		c-0.5,0.3-0.7,0.8-0.6,1.3c0.1,0.5,0.5,0.9,1,1c1.6,0.3,3.3,0.5,5,0.5c3,0,6.1-0.6,8.9-1.7v5.6l2,0.9l0.7,0.3v-6.9
		c2.8,1.1,5.9,1.7,8.9,1.7c1.7,0,3.4-0.2,5-0.5c0.5-0.1,0.9-0.5,1-1C1038.7,549.1,1038.4,548.6,1038,548.4z M1337.3,370.6
		c11.6,0,21.1-9.5,21.1-21.1c0-11.6-9.5-21.1-21.1-21.1c-11.6,0-21.1,9.5-21.1,21.1C1316.2,361.2,1325.7,370.6,1337.3,370.6z
		 M1337.4,345.4c2.6,0,4.7,2.1,4.7,4.7c0,2.6-2.1,4.7-4.7,4.7c-2.6,0-4.7-2.1-4.7-4.7C1332.7,347.6,1334.8,345.4,1337.4,345.4z
		 M1360.5,463.5v2.3c0.3,0.2,0.6,0.4,0.8,0.8c0.6,1,0.2,2.3-0.8,2.9l-23.5,13.2l12.6,15.4c0.7,0.9,0.6,2.2-0.3,3
		c-0.4,0.3-0.9,0.5-1.3,0.5c-0.6,0-1.2-0.3-1.6-0.8l-2.1-2.5v4.2c0,2-1.6,3.6-3.6,3.6c0.5,2,1.4,9.9,2.6,21.3l19.5-42.2l7.3-12.1
		l-5.2-9.4L1360.5,463.5L1360.5,463.5z M1326,502.3v-3.8l-1.9,2.2c-0.8,0.9-2.1,1-3,0.2c-0.9-0.8-1-2.1-0.2-3l13-15.3l-22.6-12.7
		c-0.3-0.2-0.5-0.4-0.7-0.6c-0.5-0.4-0.8-1-0.8-1.7v-4.2h-2.5L1299,477l26.7,62.4c1.8-17.6,3.3-30.7,4-33.4
		C1327.6,505.9,1326,504.3,1326,502.3L1326,502.3z M1314.1,444.1v22.5l21.4,12l20.8-11.7v-15.1l-0.8,0.6c-1,0.9-2,1.7-2.9,2.4
		c-3.3,2.8-7.1,4.3-10.9,4.3H1331c-1.2,0-2.1-0.9-2.1-2.1c0-1.2,0.9-2.1,2.1-2.1h10.7c2.7,0,5.6-1.2,8.2-3.3c0.9-0.8,1.9-1.6,3-2.5
		c4.2-3.4,9.9-8.1,11.1-11.5l9.3-19.8l9.3-5.4l3.4-11.7c-0.1-1.6-1.4-2.7-3.1-2.7h-4.4l0.4-2.5c0.6-3.6,0.6-8.2,0.6-11.9v-2.2l0-0.3
		h-86.8v1.1c0,3.1,0.1,8.8,1,13.3l0.5,2.5h-4.7c-0.9,0-1.6,0.3-2.2,0.9c-0.3,0.3-0.7,0.9-0.8,1.8l2.4,11.8l10.7,5.3l9.5,19.9
		c0.6,1.6,2.5,3.7,4.4,5.8L1314.1,444.1L1314.1,444.1z M1383.7,368.5h-29.5l-0.1,0c-4.5,3.9-10.3,6.3-16.7,6.3
		c-6.4,0-12.2-2.4-16.7-6.3h-31.8v8.4h94.9C1383.7,377,1383.7,368.5,1383.7,368.5z M1224.8,476.9l0.4-1.1l-1.5-3.5l-15.1-15.3v16.5
		l-26.6,83h0.2l40.1-57.7h6.2l10.5,10.7h0.2l-13.4-32.3L1224.8,476.9z M803.6,464.2l-0.1,11.4l-18.9,58.9l28.4-40.8h3.6
		c1.1-1.7,2.4-3.2,4-4.5l-6.7-14.6L803.6,464.2L803.6,464.2z M718,521.5l0-36.9l-4.2,1.4l0,35.5c-4.6,0.9-8,5-8,9.8
		c0,5.5,4.5,10,10,10s10-4.5,10-10C725.8,526.5,722.5,522.5,718,521.5L718,521.5z M715.8,535.9c-2.5,0-4.6-2.1-4.6-4.6
		c0-2.5,2.1-4.6,4.6-4.6c2.5,0,4.6,2.1,4.6,4.6C720.4,533.8,718.4,535.9,715.8,535.9z M783.7,541.8h-7.4l-18.1-26
		c0,0.6,0.1,1.2,0.1,1.8l0,5.4l24.6,53.9l30.4-63.7c0.2-0.3,0.4-0.6,0.7-0.8l0-8.2c0-1.7,0.1-3.3,0.4-4.8L785,541.8H783.7
		L783.7,541.8z M653.7,539.3c1.8-17.6,3.3-30.7,4-33.4c-2,0-3.6-1.6-3.6-3.6v-3.8l-1.9,2.2c-0.8,0.9-2.1,1-3,0.2
		c-0.9-0.8-1-2.1-0.2-3l13-15.3l-22.6-12.7c-0.3-0.2-0.5-0.4-0.7-0.6c-0.5-0.4-0.8-1-0.8-1.7v-4.2h-2.5L627,477L653.7,539.3z
		 M824.3,486.6c2.9-1.6,6.2-3,9.9-4.4l-14.3-5L824.3,486.6z M1021,569.1c0,0.7,0.6,1.3,1.3,1.3s1.3-0.6,1.3-1.3v-5.4l-2.7-1.2
		L1021,569.1L1021,569.1z M1018.3,562.8l1.7-0.8l-3.1-1.4c-1.6,0.9-2.2,3-1.2,4.6c0.3,0.6,0.8,1,1.4,1.3c0.7,0.2,1.5-0.1,1.7-0.8
		c0.2-0.6,0-1.2-0.6-1.6c-0.3-0.2-0.5-0.6-0.3-0.9C1018,563,1018.2,562.8,1018.3,562.8L1018.3,562.8z"/>
	<path class="st4" d="M1344.1,502.3v-4.2l-8.7-10.7l-9.4,11v3.8c0,2,1.6,3.6,3.6,3.6c-0.7,2.6-2.1,15.7-4,33.4l5.7,13.3l11.7-25.4
		c-1.2-11.4-2.1-19.3-2.6-21.3C1342.5,505.9,1344.1,504.3,1344.1,502.3L1344.1,502.3z"/>
	<path class="st5" d="M1430.2,517.7c0-12.6-8-16.6-19.2-20.9l-21-14.5l0,39.2c4.5,1,7.8,5,7.8,9.8c0,5.5-4.5,10-10,10s-10-4.5-10-10
		c0-4.8,3.4-8.9,8-9.8l0-42.1l-12-8.3l-6.5-11.9h-6.8v-10.5c0-0.1,0-0.3,0-0.4c3.4-3,6.3-6,7.4-8.9l8.7-18.5l9.7-5.6l4-14.3
		c0-3.9-3-6.9-6.9-7.2c0.3-3.4,0.3-7,0.3-10.1v-2.2l0-0.3h4.3v-16.9h-4.2v-12.1c0-5.8-2.2-11.2-6.3-15.3c-4.1-4.1-9.5-6.3-15.3-6.3
		c-1.2,0-2.1,0.9-2.1,2.1c0,1.2,0.9,2.1,2.1,2.1c4.6,0,9,1.8,12.3,5.1c3.3,3.3,5.1,7.7,5.1,12.3v12.1h-21.6c3-4.2,4.8-9.3,4.8-14.8
		c0-14-11.4-25.3-25.3-25.3c-14,0-25.3,11.4-25.3,25.3c0,5.5,1.8,10.6,4.8,14.8h-21.6v-12.1c0-4.6,1.8-9,5.1-12.3
		c3.3-3.3,7.7-5.1,12.3-5.1c1.2,0,2.1-0.9,2.1-2.1c0-1.2-0.9-2.1-2.1-2.1c-5.8,0-11.2,2.2-15.3,6.3c-4.1,4.1-6.3,9.5-6.3,15.3v12.1
		h-6.3v16.9h3.9v1.1c0,3.2,0.1,7.6,0.7,11.6c-1.9,0.1-3.6,0.8-4.9,2.2c-1.3,1.4-2,3.1-1.9,5l0,0.4l2.8,14l11.2,5.6l8.8,18.4
		c0.7,2,2.6,4.2,4.7,6.4v13.5h-4.8l-9.8,15.8l-33,11.5l0,0L1229,474l-1.7-4.1l-18.7-18.9v-5.5h51.4V335.8
		c0-45.1-35.2-82.9-79.7-83.7c-45.7-0.8-82.7,36.4-82.7,82.4v111.1h52v5.5l-18.1,18.3l-37.5,14.1l-0.8,0.3c-1.3-0.5-2.6-1-4-1.5
		l-91.4-37.5l0-28.9c0.7-1,1.6-2,2.4-2.9c1.8-2.2,3.6-4.2,4.3-6.2l12.8-26.8l16.1-8.2l4-20.1l0-0.4c0.1-2.7-1-5.5-3-7.5
		c-1.8-1.9-4.1-2.9-6.6-2.9h-0.4c1-5.6,1.7-10.6,1.7-15.9v-2.5l-0.1-0.8c0-9.1-2.1-18.5-6.1-27.1c-0.4-0.8-0.7-1.6-1.1-2.4
		c-4.5-9-11-17.1-19-23.3c-12-9.5-26.4-14.5-41.7-14.6c-17.8-0.1-34.8,6.9-47.8,19.9c-13.3,13.2-20.9,31.4-20.9,49.8v1.1
		c0,4.9,0.4,9.6,1.2,15.9h-0.1c-5.3,0-9.8,4.7-9.8,10.3l5.7,20.8l13.8,8l12.6,26.8c0.6,1.5,1.5,3.1,2.8,4.7
		c-3.9-7.8-10.9-22.3-9.1-28.5l-2.9-6.2l-13.5-7.8l-5-18.1c0.1-3,2.6-5.6,5.3-5.6h5.3l-0.4-2.6c-1.1-7.4-1.6-12.5-1.6-17.8v-1.1
		c0-17.3,7.1-34.3,19.6-46.7c12.2-12.1,28-18.7,44.6-18.5c14.3,0.1,27.8,4.8,39,13.7c7.4,5.8,13.5,13.4,17.7,21.8
		c0.4,0.7,0.7,1.5,1.1,2.2c3.8,8.1,5.7,17,5.7,25.5l0.1,3c0,5.5-0.9,10.6-2,17.1l-0.6,3.3h5.8c1.2,0,2.4,0.5,3.4,1.5
		c1.1,1.1,1.7,2.6,1.7,4l-3.5,17.8l-15.5,7.9l-4.7,9.8c2.4,8.7-6.3,21.9-16,32.4l0,29l13,5.3c-6.7,18.7-24.4,31.3-44.4,31.3
		c-20,0-37.5-12.4-44.3-31l12.9-5.2V425c-1.5-1.2-3-2.4-4.5-3.6v23.8l-85.5,34.5l-23.6-8.2l-13.4-13.6v-13.1
		c3.9-3.9,8.4-9,12.1-14.9c8.3-13.5,12.9-31.3,12.9-50.2v-1.4h-4.5v1.4c0,18.1-4.4,35.1-12.3,47.9c-6.1,9.9-15.3,17.7-18.2,20.3
		c-2,1.7-4.8,2.6-8.1,2.6h-9.9c-2.9,0-5.5-0.9-7.6-2.8c-5-4.3-12.1-11.3-17.4-20c-9.4-15.4-11.4-34.6-11.4-48v-1.4h-4.5v1.4
		c0,14,2.1,34,12.1,50.3c3.3,5.4,7.1,10.1,10.9,14v13.9l-13.7,13.9l-0.1-0.3l-24.4,8l0,0.1l-5.6,1.8l0-1.9l-12-8.3l-6.5-11.9h-6.8
		v-10.5c0-0.1,0-0.3,0-0.4c3.4-3,6.3-6,7.4-8.9l8.7-18.5l9.7-5.6l4-14.3c0-3.9-3-6.9-6.9-7.2c0.3-3.4,0.3-7,0.3-10.1v-2.2l0-0.3h4.3
		v-16.9h-4.2v-12.1c0-5.8-2.2-11.2-6.3-15.3c-4.1-4.1-9.5-6.3-15.3-6.3c-1.2,0-2.1,0.9-2.1,2.1c0,1.2,0.9,2.1,2.1,2.1
		c4.6,0,9,1.8,12.3,5.1c3.3,3.3,5.1,7.7,5.1,12.3v12.1h-21.6c3-4.2,4.8-9.3,4.8-14.8c0-14-11.4-25.3-25.3-25.3
		c-14,0-25.3,11.4-25.3,25.3c0,5.5,1.8,10.6,4.8,14.8h-21.6v-12.1c0-4.6,1.8-9,5.1-12.3c3.3-3.3,7.7-5.1,12.3-5.1
		c1.2,0,2.1-0.9,2.1-2.1c0-1.2-0.9-2.1-2.1-2.1c-5.8,0-11.2,2.2-15.3,6.3c-4.1,4.1-6.3,9.5-6.3,15.3v12.1h-6.3v16.9h3.9v1.1
		c0,3.2,0.1,7.6,0.7,11.6c-1.9,0.1-3.6,0.8-4.9,2.2c-1.3,1.4-2,3.1-1.9,5l0,0.4l2.8,14l11.2,5.6l8.8,18.4c0.7,2,2.6,4.2,4.7,6.4
		v13.5H633l-9.8,15.8l-33,11.5l0,0L557,474l-1.7-4.1l-18.7-18.9v-5.5H588V335.8c0-45.1-35.2-82.9-79.7-83.7
		c-45.6-0.8-82.7,36.4-82.7,82.4v111.1h52v5.5l-18.1,18.3L422,483.4l-0.8,0.3c-1.3-0.5-2.6-1-4-1.5l-91.4-37.5l0-28.9
		c0.7-1,1.6-2,2.4-2.9c1.9-2.2,3.6-4.2,4.3-6.2l12.8-26.8l16.1-8.2l4-20.1l0-0.4c0.1-2.7-1-5.5-3-7.5c-1.8-1.9-4.1-2.9-6.6-2.9h-0.4
		c1-5.6,1.7-10.6,1.7-15.9v-2.5l-0.1-0.8c0-9.1-2.1-18.5-6.1-27.1c-0.4-0.8-0.7-1.6-1.1-2.4c-4.5-9-11-17.1-19-23.3
		c-12-9.5-26.4-14.5-41.7-14.6c-17.8-0.1-34.8,6.9-47.8,19.9c-13.3,13.2-20.9,31.4-20.9,49.8v1.1c0,4.9,0.4,9.6,1.2,15.9h-0.1
		c-5.3,0-9.8,4.7-9.8,10.3l5.7,20.8l13.8,8l12.6,26.8c0.6,1.5,1.6,3.1,2.8,4.7c-3.9-7.8-10.9-22.3-9.1-28.5l-2.9-6.2l-13.5-7.8
		l-5-18.1c0.1-3,2.6-5.6,5.3-5.6h5.3l-0.4-2.6c-1.1-7.4-1.6-12.5-1.6-17.8v-1.1c0-17.3,7.1-34.3,19.6-46.7
		c12.2-12.1,28-18.7,44.6-18.5c14.3,0.1,27.8,4.8,39,13.7c7.4,5.8,13.5,13.4,17.7,21.8c0.4,0.7,0.7,1.5,1.1,2.2
		c3.8,8.1,5.7,17,5.7,25.5l0.1,3c0,5.5-0.9,10.6-2,17.1l-0.6,3.3h5.8c1.2,0,2.4,0.5,3.4,1.5c1.1,1.1,1.7,2.6,1.7,4l-3.5,17.8
		l-15.5,7.9l-4.7,9.8c2.4,8.7-6.3,21.9-16,32.4l0,29l13,5.3c-6.7,18.7-24.4,31.3-44.4,31.3c-20,0-37.5-12.4-44.3-31l12.9-5.2V425
		c-1.5-1.2-3-2.4-4.5-3.6v23.8l-85.5,34.5l-23.6-8.2l-17.8-18.1v21.3l-21.6,67.3h7.4l29.4-42.3c-0.3,1.4-0.4,3-0.4,4.8l0,8.2
		c-0.3,0.2-0.5,0.5-0.7,0.8L110.9,577l-37.3-81.6c-0.5-1.1-1.8-1.6-3-1.1c-1.1,0.5-1.6,1.8-1.1,3l41.2,90.3l31.1-65.2l-0.2,93.8
		l2.2,0l0,1.7h291.6l0-1.7h2.2l0-111.6c0-9.7-4.5-14.7-11.3-18.3l30.3-11.4l-16.3,39h8.3l10.5-10.7h2.2l40.1,57.6h10.7l40.1-57.6
		h2.2l10.5,10.7h8.3l-14.3-34.4l31.3,11.8c18.2,7.2,31.2,23.8,33.8,43.5l8.2,76.2l-0.1,0.2l0.2,0.4c0.2,0.4,0.3,0.9,0.4,1.3
		c0.1,0.5,0.2,0.9,0.2,1.4l0,0l0,0l1.5,2.6l2.6,0l0.1,1.2l1.9-0.7l0.5,1.8l1-2.2l117.5,0.5l-0.2-83.5l22.3,48.8v34.6h4.5v-34.6
		l28.9-60.4l-0.2,93.8l2.2,0l0,1.7h291.6l0-1.7h2.2l0-111.6c0-9.7-4.5-14.7-11.3-18.3l30.3-11.4l-16.3,39h8.3l10.5-10.7h2.2
		l40.1,57.6h10.7l40.1-57.6h2.2l10.5,10.7h8.3l-14.3-34.4l31.3,11.8c18.2,7.2,31.2,23.8,33.8,43.5l8.2,76.2l-0.1,0.2l0.2,0.4
		c0.2,0.4,0.3,0.9,0.4,1.3c0.1,0.5,0.2,0.9,0.2,1.4l0,0l0,0l1.5,2.6l2.6,0l0.1,1.2l1.9-0.7l0.5,1.8l1-2.2l117.5,0.5L1430.2,517.7
		L1430.2,517.7z M152.3,486.6l-4.3-9.4l14.3,5C158.6,483.5,155.2,484.9,152.3,486.6L152.3,486.6z M141,493.7l-28.4,40.8l18.9-58.9
		l0.1-11.4l10.2,10.4l6.7,14.6c-1.6,1.3-2.9,2.8-4,4.5H141L141,493.7z M346.3,564c0.5,0.3,0.8,1,0.6,1.6c-0.2,0.7-1,1.1-1.7,0.8
		c-0.6-0.3-1.1-0.8-1.4-1.3c-0.9-1.6-0.4-3.7,1.2-4.6l3.1,1.4l-1.7,0.8c-0.1,0.1-0.3,0.2-0.3,0.3C345.8,563.4,346,563.9,346.3,564z
		 M351.7,569.1c0,0.7-0.6,1.3-1.3,1.3c-0.7,0-1.3-0.6-1.3-1.3v-6.6l2.7,1.2L351.7,569.1L351.7,569.1z M355.6,566.5
		c-0.1,0.1-0.2,0.1-0.3,0.2c-0.7,0.2-1.4-0.2-1.7-0.9c-0.2-0.7,0.2-1.4,0.9-1.7c0.1-0.1,0.3-0.2,0.3-0.3c0.2-0.3,0-0.8-0.3-0.9
		l-5.4-2.6l-3.9-1.8c-0.7-0.3-1.3-0.9-1.6-1.6c-0.8-1.7-0.1-3.7,1.6-4.5c0.1-0.1,0.2-0.1,0.3-0.2c0.7-0.2,1.4,0.2,1.7,0.9
		c0.2,0.7-0.2,1.4-0.9,1.7c-0.2,0.1-0.3,0.2-0.3,0.4c-0.2,0.3,0,0.8,0.3,0.9l3.9,1.8l5.4,2.5c0.7,0.3,1.3,0.9,1.6,1.6
		C358,563.7,357.2,565.7,355.6,566.5z M355.8,558.3l-3.1-1.4l1.7-0.8c0.1-0.1,0.3-0.2,0.3-0.3c0.2-0.3,0-0.8-0.3-0.9
		c-0.1,0-0.2-0.1-0.3-0.2c-0.6-0.4-0.8-1.2-0.4-1.8c0.4-0.6,1.2-0.8,1.9-0.4c0.6,0.3,1.1,0.8,1.4,1.3
		C358,555.3,357.4,557.3,355.8,558.3L355.8,558.3z M366.6,549.7c-0.1,0.5-0.5,0.9-1,1c-1.6,0.3-3.3,0.5-5,0.5c-3,0-6.1-0.5-8.9-1.7
		v6.9L351,556l-2-0.9v-5.6c-2.8,1.1-5.9,1.7-8.9,1.7c-1.7,0-3.4-0.2-5-0.5c-0.5-0.1-0.9-0.5-1-1c-0.1-0.5,0.1-1,0.6-1.3
		c2.3-1.3,4.2-3,5.6-5.1c0.3-0.4,0.7-0.7,1.1-0.7c0.5-0.1,1,0,1.3,0.3c1.9,1.4,4,2.4,6.2,3.1v-2c-0.8-0.3-1.4-1-1.8-1.8
		c-0.7-1.7,0.1-3.7,1.8-4.4c1.7-0.7,3.7,0.1,4.5,1.8c0.7,1.7-0.1,3.7-1.8,4.4v2c2.2-0.7,4.3-1.8,6.2-3.1c0.4-0.3,0.9-0.4,1.3-0.3
		c0.5,0.1,0.9,0.3,1.1,0.7c1.4,2.1,3.3,3.8,5.5,5.1C366.4,548.6,366.7,549.1,366.6,549.7z M455.6,345.7c22.3,0,43.7-8.6,60-24
		l-0.5,24h47.7v1.8c0,17.8-2.6,43.3-15.2,63.8c-7.1,11.6-16.5,20.9-23.1,26.6c-3,2.6-6.6,3.9-10.6,3.9h-13.1
		c-4.6,0-8.4-1.2-11.3-3.7c-4-3.4-16.1-13.8-24.3-27c-10.5-17-16.3-39.6-16.3-63.7v-1.8L455.6,345.7L455.6,345.7z M504,556.6
		l-40.1-57.7h-6.2l-10.5,10.7H447l15.5-37.3l15.1-15.3l0.1,16.9l26.5,82.7L504,556.6L504,556.6z M507.1,551.9L481.8,473v-17.8h0v-12
		l3.8-2.6l1,0.9c3.6,3.1,8.3,4.7,14,4.7h13.1c5.1,0,9.6-1.7,13.4-4.9c1.6-1.4,3.4-3,5.3-4.8v10.5l0,0V473L507.1,551.9L507.1,551.9z
		 M567.2,509.6h-0.2l-10.5-10.7h-6.2l-40.1,57.7H510l26.6-83v-16.5l15.1,15.3l1.5,3.5l-0.4,1.1l1,0.4L567.2,509.6L567.2,509.6z
		 M762.1,448.3c1,1,2,1.9,3,2.7c3,2.6,6.5,3.9,10.6,3.9h9.9c4.5,0,8.2-1.2,11-3.7l0.9-0.8c0.5-0.4,1.1-0.9,1.7-1.5v12.2h0v13.4
		l-18.5,57.7l-18.5-57.7v-21.3l0,0L762.1,448.3L762.1,448.3z M747.4,474.5l10.2-10.4v11.1l19,59.3l-28.4-40.8h-5.3l-3.3,3.3
		l-0.6-0.2l-0.7-0.5L747.4,474.5z M741.5,476.8l-7,16.8l-14.2-9.8l3.8-1.2l0-0.1L741.5,476.8z M665.3,328.5
		c11.6,0,21.1,9.5,21.1,21.1c0,11.6-9.5,21.1-21.1,21.1c-11.6,0-21.1-9.5-21.1-21.1C644.2,337.9,653.7,328.5,665.3,328.5z
		 M616.8,368.5h31.8c4.5,3.9,10.3,6.3,16.7,6.3c6.4,0,12.3-2.4,16.7-6.3l0.1,0h29.5v8.4h-94.9L616.8,368.5L616.8,368.5z
		 M637.1,437.7l-9.5-19.9l-10.7-5.3l-2.4-11.8c0-0.9,0.4-1.5,0.8-1.8c0.6-0.6,1.3-0.9,2.2-0.9h4.7l-0.5-2.5c-0.9-4.5-1-10.2-1-13.3
		v-1.1h86.8l0,0.3v2.2c0,3.7,0,8.3-0.6,11.9l-0.4,2.5h4.4c1.7,0,3,1.1,3.1,2.7l-3.4,11.7l-9.3,5.4l-9.3,19.8c-1.3,3.4-7,8-11.1,11.5
		c-1.1,0.9-2.1,1.7-3,2.5c-2.5,2.1-5.4,3.3-8.2,3.3H659c-1.2,0-2.1,0.9-2.1,2.1c0,1.2,0.9,2.1,2.1,2.1h10.7c3.7,0,7.6-1.5,10.9-4.3
		c0.9-0.8,1.9-1.6,2.9-2.4l0.8-0.6v15.1l-20.8,11.7l-21.4-12v-22.5l-0.6-0.6C639.6,441.5,637.7,439.4,637.1,437.7L637.1,437.7z
		 M635.4,463.5h2.5v4.2c0,0.7,0.3,1.3,0.8,1.7c0.2,0.2,0.4,0.5,0.7,0.6l22.6,12.7l-13,15.3c-0.8,0.9-0.6,2.2,0.2,3
		c0.9,0.8,2.2,0.6,3-0.2l1.9-2.2l9.4-11l8.7,10.7l2.1,2.5c0.4,0.5,1,0.8,1.6,0.8c0.5,0,0.9-0.2,1.3-0.5c0.9-0.7,1-2.1,0.3-3
		l-12.6-15.4l23.5-13.2c1-0.6,1.4-1.9,0.8-2.9c-0.2-0.3-0.5-0.6-0.8-0.8v-2.3h4.3l5.2,9.4l-7.3,12.1l-1.4,3l-0.9,0.3l0.3,0.9
		l-17.5,37.9l-11.7,25.4l-5.7-13.3L627,477L635.4,463.5L635.4,463.5z M715.8,541.3c-5.5,0-10-4.5-10-10c0-4.8,3.4-8.9,8-9.8l0-35.5
		l4.2-1.4l0,36.9c4.5,1,7.8,5,7.8,9.8C725.8,536.8,721.4,541.3,715.8,541.3L715.8,541.3z M814,504.3l0,8.2c-0.3,0.2-0.5,0.5-0.7,0.8
		L782.9,577l-24.6-53.9l0-5.4c0-0.6,0-1.2-0.1-1.8l18.1,26h8.8l29.4-42.3C814.1,501,814,502.6,814,504.3L814,504.3z M816.6,493.7
		H813l-28.4,40.8l18.9-58.9l0.1-11.4l10.2,10.4l6.7,14.6C819,490.4,817.6,491.9,816.6,493.7z M824.3,486.6l-4.3-9.4l14.3,5
		C830.6,483.5,827.2,484.9,824.3,486.6z M1018.3,564c0.5,0.3,0.8,1,0.6,1.6c-0.2,0.7-1,1.1-1.7,0.8c-0.6-0.3-1.1-0.8-1.4-1.3
		c-0.9-1.6-0.4-3.7,1.2-4.6l3.1,1.4l-1.7,0.8c-0.1,0.1-0.3,0.2-0.3,0.3C1017.8,563.4,1018,563.9,1018.3,564L1018.3,564z
		 M1023.7,569.1c0,0.7-0.6,1.3-1.3,1.3c-0.7,0-1.3-0.6-1.3-1.3v-6.6l2.7,1.2L1023.7,569.1L1023.7,569.1z M1027.6,566.5
		c-0.1,0.1-0.2,0.1-0.3,0.2c-0.7,0.2-1.4-0.2-1.7-0.9c-0.2-0.7,0.2-1.4,0.9-1.7c0.1-0.1,0.3-0.2,0.3-0.3c0.2-0.3,0-0.8-0.3-0.9
		l-5.4-2.6l-3.9-1.8c-0.7-0.3-1.3-0.9-1.6-1.6c-0.8-1.7-0.1-3.7,1.6-4.5c0.1-0.1,0.2-0.1,0.3-0.2c0.7-0.2,1.4,0.2,1.7,0.9
		c0.2,0.7-0.2,1.4-0.9,1.7c-0.2,0.1-0.3,0.2-0.3,0.4c-0.2,0.3,0,0.8,0.3,0.9l3.9,1.8l5.4,2.5c0.7,0.3,1.3,0.9,1.6,1.6
		C1030,563.7,1029.2,565.7,1027.6,566.5z M1027.8,558.3l-3.1-1.4l1.7-0.8c0.1-0.1,0.3-0.2,0.3-0.3c0.2-0.3,0-0.8-0.3-0.9
		c-0.1,0-0.2-0.1-0.3-0.2c-0.6-0.4-0.8-1.2-0.4-1.8c0.4-0.6,1.2-0.8,1.8-0.4c0.6,0.3,1.1,0.8,1.4,1.3
		C1030,555.3,1029.4,557.3,1027.8,558.3L1027.8,558.3z M1038.6,549.7c-0.1,0.5-0.5,0.9-1,1c-1.6,0.3-3.3,0.5-5,0.5
		c-3,0-6.1-0.5-8.9-1.7v6.9l-0.7-0.3l-2-0.9v-5.6c-2.8,1.1-5.8,1.7-8.9,1.7c-1.7,0-3.4-0.2-5-0.5c-0.5-0.1-0.9-0.5-1-1
		c-0.1-0.5,0.1-1,0.6-1.3c2.3-1.3,4.2-3,5.6-5.1c0.3-0.4,0.7-0.7,1.1-0.7c0.5-0.1,1,0,1.3,0.3c1.9,1.4,4,2.4,6.2,3.1v-2
		c-0.8-0.3-1.4-1-1.8-1.8c-0.7-1.7,0.1-3.7,1.8-4.4c1.7-0.7,3.7,0.1,4.5,1.8c0.7,1.7-0.1,3.7-1.8,4.4v2c2.2-0.7,4.3-1.8,6.2-3.1
		c0.4-0.3,0.9-0.4,1.3-0.3c0.5,0.1,0.9,0.3,1.1,0.7c1.4,2.1,3.3,3.8,5.5,5.1C1038.4,548.6,1038.7,549.1,1038.6,549.7L1038.6,549.7z
		 M1137.1,411.2c-10.5-17-16.3-39.6-16.3-63.7v-1.8h6.8c22.3,0,43.7-8.6,60-24l-0.5,24h47.7v1.8c0,17.8-2.6,43.3-15.2,63.8
		c-7.1,11.6-16.5,20.9-23.1,26.6c-3,2.6-6.6,3.9-10.6,3.9h-13.1c-4.6,0-8.4-1.2-11.3-3.7C1157.4,434.7,1145.3,424.4,1137.1,411.2
		L1137.1,411.2z M1176,556.6l-40.1-57.7h-6.2l-10.5,10.7h-0.2l15.5-37.3l15.1-15.3l0.1,16.9l26.5,82.7L1176,556.6L1176,556.6z
		 M1179.1,551.9l-25.3-78.9v-17.8h0v-12l3.8-2.6l1,0.9c3.6,3.1,8.3,4.7,14,4.7h13.1c5.1,0,9.6-1.7,13.4-4.9c1.6-1.4,3.4-3,5.3-4.8
		v10.5l0,0V473L1179.1,551.9L1179.1,551.9z M1239.2,509.6h-0.2l-10.5-10.7h-6.2l-40.1,57.7h-0.2l26.6-83v-16.5l15.1,15.3l1.5,3.5
		l-0.4,1.1l1,0.4L1239.2,509.6L1239.2,509.6z M1316.2,349.5c0-11.6,9.5-21.1,21.1-21.1c11.6,0,21.1,9.5,21.1,21.1
		c0,11.6-9.5,21.1-21.1,21.1C1325.7,370.6,1316.2,361.2,1316.2,349.5z M1288.8,377v-8.4h31.8c4.5,3.9,10.3,6.3,16.7,6.3
		c6.4,0,12.3-2.4,16.7-6.3l0.1,0h29.5v8.4C1383.7,377,1288.8,377,1288.8,377z M1309.1,437.7l-9.5-19.9l-10.7-5.3l-2.4-11.8
		c0-0.9,0.4-1.5,0.8-1.8c0.6-0.6,1.3-0.9,2.2-0.9h4.7l-0.5-2.5c-0.9-4.5-1-10.2-1-13.3v-1.1h86.8l0,0.3v2.2c0,3.7,0,8.3-0.6,11.9
		l-0.4,2.5h4.4c1.7,0,3,1.1,3.1,2.7l-3.4,11.7l-9.3,5.4l-9.3,19.8c-1.3,3.4-7,8-11.1,11.5c-1.1,0.9-2.1,1.7-3,2.5
		c-2.5,2.1-5.4,3.3-8.2,3.3H1331c-1.2,0-2.1,0.9-2.1,2.1c0,1.2,0.9,2.1,2.1,2.1h10.7c3.7,0,7.6-1.5,10.9-4.3
		c0.9-0.8,1.9-1.6,2.9-2.4l0.8-0.6v15.1l-20.8,11.7l-21.4-12v-22.5l-0.6-0.6C1311.6,441.5,1309.7,439.4,1309.1,437.7L1309.1,437.7z
		 M1362.6,485l-19.5,42.2l-11.7,25.4l-5.7-13.3L1299,477l8.4-13.5h2.5v4.2c0,0.7,0.3,1.3,0.8,1.7c0.2,0.2,0.4,0.5,0.7,0.6l22.6,12.7
		l-13,15.3c-0.8,0.9-0.6,2.2,0.2,3c0.9,0.8,2.2,0.6,3-0.2l1.9-2.2l9.4-11l8.7,10.7l2.1,2.5c0.4,0.5,1,0.8,1.6,0.8
		c0.5,0,0.9-0.2,1.3-0.5c0.9-0.7,1-2.1,0.3-3l-12.6-15.4l23.5-13.2c1-0.6,1.4-1.9,0.8-2.9c-0.2-0.3-0.5-0.6-0.8-0.8v-2.3h4.3
		l5.2,9.4L1362.6,485L1362.6,485z"/>
	<path class="st4" d="M746.7,429.9c-10-16.3-12.1-36.4-12.1-50.3v-1.4h4.5v0h35.5l-0.4-18.2c12.3,11.7,28.6,18.2,45.4,18.2h4.5v0
		h4.5v1.4c0,18.9-4.6,36.8-12.9,50.2c-3.6,5.9-8.2,11-12.1,14.9v9.2h38.7v-84.1c0-4.8-0.6-9.5-1.6-14.1H721.2
		c-1.2,4.8-1.8,9.9-1.8,15.1v83.1h38.3v-10C753.9,440,750,435.3,746.7,429.9L746.7,429.9z M799.1,448.9c-0.6,0.6-1.2,1.1-1.7,1.5
		l1.7,1.2V448.9z M1238.2,548.7h-5.6v7.4h-7.4v5.6h7.4v7.4h5.6v-7.4h7.4v-5.6h-7.4V548.7z"/>
	<circle class="st4" cx="1337.4" cy="350.2" r="4.7"/>
	<circle class="st5" cx="1387.8" cy="531.3" r="4.6"/>
	<path class="st4" d="M944.5,433.2c0.3,0.2,0.7,0.3,1,0.4c9,3.6,18.4,4.5,28,1.2c4.2-1.5,12.4-7.9,19.9-16
		c9.7-10.5,18.3-23.7,16-32.4c-0.5-1.8-1.5-3.4-3-4.8c-18.6-16.5-41.6-27.7-63.3-17.9c-10.8,4.9-21.9,10.7-31.8,17.1
		c-0.8,0.5-1.3,1.3-1.6,2.3c-1.8,6.2,5.1,20.7,9.1,28.5c1.5,3.1,2.6,5.1,2.5,5.2c0.9,0.9,1.3,1.2,1.3,1.3c1.2,1.1,2.4,2.2,3.6,3.2
		c1.5,1.3,3,2.5,4.5,3.6C935,428.3,939.7,431.1,944.5,433.2L944.5,433.2z"/>
	<path class="st5" d="M831.7,295.4h-99.8l-11.4,55.5l120.7-0.2C841.2,350.7,831.7,295.4,831.7,295.4z M792.1,326h-7.7v7.7h-5.8V326
		h-7.7v-5.8h7.7v-7.7h5.8v7.7h7.7V326z"/>
	<path class="st4" d="M657.6,505.9c-0.7,2.6-2.1,15.7-4,33.4l5.7,13.3l11.7-25.4c-1.2-11.4-2.1-19.3-2.6-21.3c2,0,3.6-1.6,3.6-3.6
		v-4.2l-8.7-10.7l-9.4,11v3.8C654,504.3,655.6,505.9,657.6,505.9L657.6,505.9z"/>
	<path class="st5" d="M272.5,433.2c0.3,0.2,0.7,0.3,1,0.4C273.2,433.5,272.8,433.3,272.5,433.2z"/>
	<path class="st4" d="M87.9,446.3c-4.3-4.3-9.2-9.8-13.2-16.3c-10-16.3-12.1-36.4-12.1-50.3v-1.4h4.5v0h35.5l-0.4-18.2
		c12.3,11.7,28.6,18.2,45.4,18.2h4.5v0h4.5v1.4c0,18.9-4.6,36.8-12.9,50.2c-6,9.7-14.5,17.3-18.3,20.6l5,3.4h39.9v-84.1
		c0-4.8-0.6-9.5-1.6-14.1H49.2c-1.2,4.8-1.8,9.9-1.8,15.1v83.1H88L87.9,446.3L87.9,446.3z"/>
	<path class="st5" d="M143.7,429.9c8.3-13.5,12.9-31.3,12.9-50.2v-1.4h-4.5v1.4c0,18.1-4.4,35.1-12.3,47.9
		c-6.1,9.9-15.3,17.7-18.2,20.3c-2,1.7-4.8,2.6-8.1,2.6h-9.9c-2.9,0-5.5-0.9-7.6-2.8c-5-4.3-12.1-11.3-17.4-20
		c-9.4-15.4-11.4-34.6-11.4-48v-1.4h-4.5v1.4c0,14,2.1,34,12.1,50.3c4,6.5,8.8,12,13.2,16.3c1.8,1.8,3.6,3.4,5.1,4.8
		c3,2.6,6.5,3.9,10.6,3.9h9.9c4.4,0,8.2-1.2,11-3.7l0.9-0.8C129.2,447.2,137.7,439.5,143.7,429.9L143.7,429.9z"/>
	<path class="st4" d="M566.2,548.7h-5.6v7.4h-7.4v5.6h7.4v7.4h5.6v-7.4h7.4v-5.6h-7.4V548.7z"/>
	<circle class="st4" cx="665.4" cy="350.2" r="4.7"/>
	<circle class="st5" cx="715.8" cy="531.3" r="4.6"/>
	<path class="st4" d="M272.5,433.2c0.3,0.1,0.7,0.3,1,0.4c9,3.6,18.4,4.5,28,1.2c4.2-1.5,12.4-7.9,19.9-16
		c9.7-10.5,18.3-23.7,16-32.4c-0.5-1.8-1.5-3.4-3-4.8c-18.6-16.5-41.6-27.7-63.3-17.9c-10.8,4.9-21.9,10.7-31.8,17.1
		c-0.8,0.5-1.3,1.3-1.6,2.3c-1.8,6.2,5.1,20.7,9.1,28.5c1.5,3.1,2.6,5.1,2.5,5.2c0.9,0.9,1.3,1.2,1.3,1.3c1.2,1.1,2.4,2.2,3.6,3.2
		c1.5,1.3,3,2.5,4.5,3.6C263,428.3,267.7,431.1,272.5,433.2L272.5,433.2z"/>
	<path class="st5" d="M159.7,295.4H59.9l-11.4,55.5l120.7-0.2L159.7,295.4L159.7,295.4z M120.1,326h-7.7v7.7h-5.8V326h-7.7v-5.8h7.7
		v-7.7h5.8v7.7h7.7V326z"/>
</g>
<rect x="0" class="st6" width="1430.5" height="617.4"/>
</svg>
