<svg xmlns="http://www.w3.org/2000/svg" viewBox="0 0 90 90"><defs><style>.cls-1{fill:none;stroke:#26749d;stroke-miterlimit:10;stroke-width:5px;}.cls-2{fill:#f47722;}</style></defs><title>Artboard 1 copy 6</title><g id="Layer_2" data-name="Layer 2"><path class="cls-1" d="M26.91,8C22.67,9.3,17.75,17.39,16.57,22s-1.89,5.6-.6,8.58C17,33,16.14,35.47,14.27,38S10,43.49,10.2,45.08s2.16,1.94,2.89,2.23,2.53.27.91,3.82c-.46,1-1.31,2.25,1.17,3.6C13.81,55.56,14,56,14,56.51c0,1,1.87,1.47,1.29,3.85s-.7,5.79,1.59,6.2c4.42.81,7-.07,9.82,0a4.3,4.3,0,0,1,4,2.55,21.86,21.86,0,0,1,.86,8.44A10.88,10.88,0,0,1,30.25,82H65.52c-3.89-9.3-5.26-15.4-4.93-21.7.12-2.18,1.3-4.61,3.75-7.93a44.38,44.38,0,0,0,3.56-6.24"/><path class="cls-1" d="M36,9.35s-7.22.86-9.09,10.84S33,33.58,37.43,35s7.65-1.9,10.83-1.16,7.62,5.89,12.08,7c3.65.92,9.47-1.48,11.4-6.77,3.14-8.58-1.54-15.63-6.64-19C55.89,8.95,40.87,7.71,36,9.35Z"/><rect class="cls-2" x="47.83" y="16.59" width="6.9" height="1.45"/><rect class="cls-2" x="47.83" y="16.59" width="6.9" height="1.45" transform="translate(68.6 -33.96) rotate(90)"/><rect class="cls-2" x="36.81" y="15.32" width="6.9" height="1.45"/><rect class="cls-2" x="36.81" y="15.32" width="6.9" height="1.45" transform="translate(56.3 -24.21) rotate(90)"/><rect class="cls-2" x="31.91" y="23.52" width="6.9" height="1.45"/><rect class="cls-2" x="31.91" y="23.52" width="6.9" height="1.45" transform="translate(59.6 -11.11) rotate(90)"/><rect class="cls-2" x="41.66" y="25.64" width="6.9" height="1.45"/><rect class="cls-2" x="41.66" y="25.64" width="6.9" height="1.45" transform="translate(71.48 -18.74) rotate(90)"/><rect class="cls-2" x="51.51" y="28.56" width="6.98" height="1.47"/><rect class="cls-2" x="51.51" y="28.56" width="6.98" height="1.47" transform="translate(84.3 -25.71) rotate(90)"/><rect class="cls-2" x="58.18" y="21.49" width="6.9" height="1.45"/><rect class="cls-2" x="58.18" y="21.49" width="6.9" height="1.45" transform="translate(83.85 -39.41) rotate(90)"/><rect class="cls-2" x="61.59" y="30.76" width="6.98" height="1.47"/><rect class="cls-2" x="61.59" y="30.76" width="6.98" height="1.47" transform="translate(96.58 -33.58) rotate(90)"/></g></svg>